# xmcd
#
# Track frame offsets: 
#        150
#        19036
#        37284
#        55092
#        78603
#        91320
#        111703
#        133926
#        153182
#        170413
#        181448
#
# Disc length: 2650 seconds
#
# Revision: 0
# Processed by: cddbd v1.5.2PL0 Copyright (c) Steve Scherf et al.
# Submitted via: ExactAudioCopy v0.99pb5
#
DISCID=960a580b
DTITLE=JoAnn Funk - Pick Yourself Up
DYEAR=2011
DGENRE=Jazz
TTITLE0=Pick Yourself Up
TTITLE1=Girl From Ipanema
TTITLE2=He Loves She Loves
TTITLE3=Dance Me to The End Of Love
TTITLE4=When I Grow Too Old To Dream
TTITLE5=If I Had You
TTITLE6=Triste
TTITLE7=You're Getting To Be A Habit With Me
TTITLE8=What Is There To Say
TTITLE9=Moonlight Saving Time
TTITLE10=Two Sleepy People
EXTD=
EXTT0=
EXTT1=
EXTT2=
EXTT3=
EXTT4=
EXTT5=
EXTT6=
EXTT7=
EXTT8=
EXTT9=
EXTT10=
PLAYORDER=
